REM DIRINDEX 1\2,1\3
REM DIRNAME cjc140,folder01,folder02
TITLE ""
FILE "Track84.mp3" MP3
  TRACK 01 AUDIO
    TITLE "0:"
    INDEX 01 00:00:00
  TRACK 02 AUDIO
    TITLE "3:cjc140_295"
    INDEX 01 00:00:11
  TRACK 03 AUDIO
    TITLE "2:cjc140_296"
    INDEX 01 00:02:02
  TRACK 04 AUDIO
    TITLE "2:cjc140_297"
    INDEX 01 00:10:27
  TRACK 05 AUDIO
    TITLE "2:cjc140_298"
    INDEX 01 00:19:67
  TRACK 06 AUDIO
    TITLE "0:"
    INDEX 01 00:27:69
